HIERARCHY
ROOT Hips
{
	OFFSET 0.000000 1.471914 24.280096
	CHANNELS 6 Xposition Yposition Zposition Xrotation Yrotation Zrotation
	JOINT Spine
	{
		OFFSET 0.000000 0.900110 1.860670
		CHANNELS 6 Xposition Yposition Zposition Xrotation Yrotation Zrotation
		JOINT Spine1
		{
			OFFSET 0.000000 0.400320 2.270309
			CHANNELS 6 Xposition Yposition Zposition Xrotation Yrotation Zrotation
			JOINT Spine2
			{
				OFFSET 0.000000 0.200920 2.296560
				CHANNELS 6 Xposition Yposition Zposition Xrotation Yrotation Zrotation
				JOINT Spine3
				{
					OFFSET 0.000000 0.000000 2.305330
					CHANNELS 6 Xposition Yposition Zposition Xrotation Yrotation Zrotation
					JOINT Neck
					{
						OFFSET 0.000000 -0.864490 6.051487
						CHANNELS 6 Xposition Yposition Zposition Xrotation Yrotation Zrotation
						JOINT Head
						{
							OFFSET 0.000000 -0.550429 3.121674
							CHANNELS 6 Xposition Yposition Zposition Xrotation Yrotation Zrotation
							End Site
							{
								OFFSET 0.000000 0.000000 3.731750
							}
						}
					}
					JOINT RightShoulder
					{
						OFFSET -0.788280 -1.313800 4.256718
						CHANNELS 6 Xposition Yposition Zposition Xrotation Yrotation Zrotation
						JOINT RightArm
						{
							OFFSET -3.915130 0.000000 0.000000
							CHANNELS 6 Xposition Yposition Zposition Xrotation Yrotation Zrotation
							JOINT RightForeArm
							{
								OFFSET -6.914910 0.000000 0.000000
								CHANNELS 6 Xposition Yposition Zposition Xrotation Yrotation Zrotation
								JOINT RightHand
								{
									OFFSET -6.096219 0.000000 0.000000
									CHANNELS 6 Xposition Yposition Zposition Xrotation Yrotation Zrotation
									JOINT RightHandEnd
									{
										OFFSET -1.749950 0.000000 0.000000
										CHANNELS 6 Xposition Yposition Zposition Xrotation Yrotation Zrotation
										End Site
										{
											OFFSET -1.749950 0.000000 0.000000
										}
									}
									JOINT RightHandThumb1
									{
										OFFSET -0.699980 -1.166630 -0.466648
										CHANNELS 6 Xposition Yposition Zposition Xrotation Yrotation Zrotation
										End Site
										{
											OFFSET -1.690319 -0.452920 0.000000
										}
									}
								}
							}
						}
					}
					JOINT LeftShoulder
					{
						OFFSET 0.788280 -1.313800 4.256718
						CHANNELS 6 Xposition Yposition Zposition Xrotation Yrotation Zrotation
						JOINT LeftArm
						{
							OFFSET 3.915130 0.000000 0.000000
							CHANNELS 6 Xposition Yposition Zposition Xrotation Yrotation Zrotation
							JOINT LeftForeArm
							{
								OFFSET 6.914910 0.000000 0.000000
								CHANNELS 6 Xposition Yposition Zposition Xrotation Yrotation Zrotation
								JOINT LeftHand
								{
									OFFSET 6.096219 0.000000 0.000000
									CHANNELS 6 Xposition Yposition Zposition Xrotation Yrotation Zrotation
									JOINT LeftHandEnd
									{
										OFFSET 1.749950 0.000000 0.000000
										CHANNELS 6 Xposition Yposition Zposition Xrotation Yrotation Zrotation
										End Site
										{
											OFFSET 1.749950 0.000000 0.000000
										}
									}
									JOINT LeftHandThumb1
									{
										OFFSET 0.699980 -1.166630 -0.466648
										CHANNELS 6 Xposition Yposition Zposition Xrotation Yrotation Zrotation
										End Site
										{
											OFFSET 1.690319 -0.452920 0.000000
										}
									}
								}
							}
						}
					}
				}
			}
		}
	}
	JOINT RightUpLeg
	{
		OFFSET -2.338570 -0.252550 -0.551512
		CHANNELS 6 Xposition Yposition Zposition Xrotation Yrotation Zrotation
		JOINT RightLeg
		{
			OFFSET 0.000000 0.000000 -10.744959
			CHANNELS 6 Xposition Yposition Zposition Xrotation Yrotation Zrotation
			JOINT RightFoot
			{
				OFFSET 0.000000 -0.000001 -10.930849
				CHANNELS 6 Xposition Yposition Zposition Xrotation Yrotation Zrotation
				JOINT RightToeBase
				{
					OFFSET 0.000000 -4.087269 -1.487650
					CHANNELS 6 Xposition Yposition Zposition Xrotation Yrotation Zrotation
					End Site
					{
						OFFSET 0.000000 -1.891870 0.000000
					}
				}
			}
		}
	}
	JOINT LeftUpLeg
	{
		OFFSET 2.338570 -0.252550 -0.551512
		CHANNELS 6 Xposition Yposition Zposition Xrotation Yrotation Zrotation
		JOINT LeftLeg
		{
			OFFSET 0.000000 0.000000 -10.744959
			CHANNELS 6 Xposition Yposition Zposition Xrotation Yrotation Zrotation
			JOINT LeftFoot
			{
				OFFSET 0.000000 -0.000001 -10.930849
				CHANNELS 6 Xposition Yposition Zposition Xrotation Yrotation Zrotation
				JOINT LeftToeBase
				{
					OFFSET 0.000000 -4.087269 -1.487650
					CHANNELS 6 Xposition Yposition Zposition Xrotation Yrotation Zrotation
					End Site
					{
						OFFSET 0.000000 -1.891870 0.000000
					}
				}
			}
		}
	}
}
MOTION
Frames: 4
Frame Time: 0.041667
0.000125 26.553095 40.354832 -3.335872 -16.335654 64.533656 -0.000004 0.900097 1.860680 29.857947 -3.424082 0.083277 -0.000004 0.400310 2.270302 -0.000004 -0.000002 0.000004 0.000014 0.200938 2.296558 0.000001 -0.000000 -0.000001 0.000009 -0.000017 2.305318 -0.000006 -0.000000 -2.703620 -0.000009 -0.864446 6.051517 -7.194711 -0.062035 175.499552 0.000003 -0.550421 3.121704 0.000002 -0.000000 0.000003 -0.788291 -1.313759 4.256769 -169.569323 60.464325 -17.870825 -3.915097 -0.000009 -0.000000 -0.000000 -0.000002 -0.000000 -6.914868 0.000007 0.000003 0.000030 0.000007 -13.440844 -6.096209 0.000004 0.000008 -0.000101 -0.000128 -0.000002 -1.749942 0.000004 -0.000018 0.000000 -0.000002 -0.000000 -0.699990 -1.166636 -0.466626 0.000002 -0.000003 -0.000009 0.788269 -1.313798 4.256747 -152.490899 -56.122876 40.023047 3.915158 -0.000008 0.000030 -0.000000 -0.000003 0.000001 6.914897 -0.000001 -0.000015 0.000015 0.000010 31.457000 6.096226 0.000024 -0.000003 -0.000080 0.000115 -0.000020 1.749938 0.000022 -0.000002 -0.000003 -0.000004 -0.000001 0.699983 -1.166631 -0.466662 0.000002 0.000003 -0.000014 -2.338573 -0.252550 -0.551509 8.798886 -7.579942 0.021169 0.000006 -0.000000 -10.744960 12.677774 -0.763827 -1.634392 -0.000004 0.000012 -10.930863 -0.000012 -0.000006 -0.000003 0.000008 -4.087265 -1.487641 0.000002 0.000001 0.000003 2.338567 -0.252553 -0.551451 15.435577 0.465768 0.046607 0.000001 -0.000012 -10.744941 40.474069 10.504048 0.400677 0.000013 0.000006 -10.930856 0.000003 -0.000003 0.000004 -0.000009 -4.087244 -1.487651 0.000003 -0.000001 0.000000 
0.000119 26.553097 40.354797 -2.773895 -16.735463 64.102705 -0.000004 0.900095 1.860687 30.364658 -2.467998 -0.006184 -0.000003 0.400315 2.270308 -0.000004 -0.000001 0.000006 0.000013 0.200938 2.296556 0.000001 -0.000001 -0.000001 0.000008 -0.000015 2.305326 -0.000005 -0.000004 -0.741017 -0.000009 -0.864444 6.051511 -7.083323 0.483257 176.304121 0.000004 -0.550420 3.121696 0.000003 0.000000 -0.000003 -0.788288 -1.313757 4.256761 -165.610367 58.246576 -24.559209 -3.915097 -0.000010 -0.000000 0.000001 -0.000001 -0.000000 -6.914876 0.000009 0.000002 0.000027 0.000002 -16.122006 -6.096213 0.000006 0.000009 -0.000105 -0.000126 -0.000008 -1.749952 0.000005 -0.000013 0.000003 -0.000005 0.000001 -0.699996 -1.166634 -0.466627 0.000003 -0.000005 -0.000010 0.788270 -1.313794 4.256745 -146.282079 -54.202622 45.823910 3.915155 -0.000007 0.000015 0.000005 0.000001 -0.000000 6.914902 0.000002 -0.000018 0.000016 0.000004 27.597231 6.096228 0.000022 -0.000012 -0.000076 0.000113 -0.000022 1.749932 0.000024 -0.000011 0.000003 -0.000005 -0.000001 0.699982 -1.166630 -0.466668 0.000002 -0.000000 -0.000014 -2.338575 -0.252553 -0.551506 10.130229 -6.431026 -0.005981 0.000007 0.000002 -10.744960 12.499291 -1.049330 -1.398857 -0.000005 0.000013 -10.930863 -0.000015 -0.000006 -0.000004 0.000010 -4.087268 -1.487642 0.000003 0.000000 0.000003 2.338568 -0.252554 -0.551443 10.803563 0.029952 0.001267 0.000001 -0.000009 -10.744930 47.270766 9.623556 -0.001164 0.000013 0.000007 -10.930853 0.000009 -0.000001 0.000003 -0.000013 -4.087247 -1.487653 -0.000000 -0.000002 -0.000002 
0.000128 26.553097 40.354797 -2.654111 -17.118177 63.647213 -0.000008 0.900095 1.860681 31.112980 -1.511551 0.181818 -0.000003 0.400311 2.270302 -0.000004 -0.000001 0.000002 0.000013 0.200939 2.296562 -0.000000 -0.000001 -0.000000 0.000006 -0.000015 2.305326 -0.000005 0.000003 0.884481 -0.000004 -0.864449 6.051510 -7.026155 0.865127 175.773784 0.000004 -0.550420 3.121700 0.000002 -0.000000 -0.000001 -0.788286 -1.313763 4.256762 -166.481326 57.430928 -26.849639 -3.915103 -0.000009 -0.000000 -0.000000 -0.000000 0.000000 -6.914874 0.000008 0.000002 0.000028 -0.000002 -19.152487 -6.096215 0.000002 0.000012 -0.000097 -0.000126 -0.000005 -1.749944 0.000003 -0.000019 0.000000 -0.000007 -0.000001 -0.699993 -1.166635 -0.466630 -0.000002 -0.000003 -0.000009 0.788272 -1.313802 4.256741 -143.539062 -53.513511 48.771833 3.915151 -0.000009 0.000023 0.000006 0.000003 0.000002 6.914901 -0.000003 -0.000014 0.000017 -0.000000 24.413249 6.096232 0.000022 -0.000005 -0.000083 0.000113 -0.000020 1.749935 0.000026 -0.000004 0.000001 -0.000004 0.000001 0.699982 -1.166626 -0.466660 -0.000002 0.000003 -0.000012 -2.338576 -0.252551 -0.551504 11.376487 -5.753607 0.066163 0.000007 0.000001 -10.744964 11.799665 -0.989708 -1.107107 -0.000005 0.000012 -10.930862 -0.000012 -0.000006 -0.000007 0.000009 -4.087268 -1.487642 0.000005 0.000000 0.000003 2.338568 -0.252552 -0.551443 7.511275 -0.187180 0.050806 -0.000000 -0.000011 -10.744934 52.068865 8.226182 0.113516 0.000007 0.000004 -10.930858 0.000002 -0.000003 0.000002 -0.000009 -4.087245 -1.487649 -0.000003 -0.000002 -0.000000 
0.000154 26.553097 40.354797 -2.379838 -16.828459 63.452505 -0.000003 0.900095 1.860693 30.447966 -0.697232 0.418547 -0.000003 0.400316 2.270308 -0.000003 -0.000001 0.000001 0.000013 0.200938 2.296568 0.000002 -0.000000 0.000002 0.000008 -0.000013 2.305318 -0.000008 0.000001 2.586672 -0.000007 -0.864451 6.051516 -5.964102 0.003561 175.981327 0.000002 -0.550419 3.121700 0.000002 0.000001 -0.000001 -0.788286 -1.313764 4.256770 -168.013296 55.865056 -27.858147 -3.915096 -0.000010 -0.000004 0.000001 -0.000001 -0.000000 -6.914873 0.000008 0.000002 0.000026 -0.000005 -24.045140 -6.096205 0.000004 0.000008 -0.000099 -0.000128 -0.000006 -1.749940 0.000005 -0.000020 0.000001 -0.000007 0.000002 -0.699991 -1.166635 -0.466633 0.000002 -0.000006 -0.000010 0.788269 -1.313802 4.256748 -140.834990 -52.622557 49.390221 3.915157 -0.000010 0.000015 0.000002 0.000000 0.000001 6.914896 -0.000002 -0.000013 0.000018 -0.000003 22.580821 6.096223 0.000024 -0.000008 -0.000085 0.000110 -0.000023 1.749939 0.000023 -0.000007 0.000000 -0.000008 0.000000 0.699990 -1.166631 -0.466668 0.000007 -0.000002 -0.000013 -2.338573 -0.252552 -0.551500 12.177257 -5.259319 0.171326 0.000007 0.000001 -10.744963 11.198432 -0.647488 -0.863288 -0.000001 0.000014 -10.930863 -0.000014 -0.000008 -0.000004 0.000014 -4.087268 -1.487641 0.000003 -0.000000 -0.000000 2.338569 -0.252554 -0.551439 3.616246 0.007227 0.058335 -0.000001 -0.000012 -10.744937 55.669187 5.766693 0.675246 0.000010 0.000005 -10.930856 0.000000 -0.000003 0.000002 -0.000009 -4.087243 -1.487653 -0.000004 0.000001 -0.000002 
